<?xml version="1.0" standalone="no"?>
<!DOCTYPE svg PUBLIC "-//W3C//DTD SVG 20010904//EN"
 "http://www.w3.org/TR/2001/REC-SVG-20010904/DTD/svg10.dtd">
<svg version="1.0" xmlns="http://www.w3.org/2000/svg"
 width="512.000000pt" height="512.000000pt" viewBox="0 0 512.000000 512.000000"
 preserveAspectRatio="xMidYMid meet">
<metadata>
Created by potrace 1.11, written by Peter Selinger 2001-2013
</metadata>
<g transform="translate(0.000000,512.000000) scale(0.100000,-0.100000)"
fill="#000000" stroke="none">
<path d="M3575 5102 c-45 -21 -124 -103 -180 -188 -36 -54 -115 -204 -119
-228 -2 -6 -8 -22 -14 -36 -36 -81 -75 -280 -88 -450 -11 -139 -7 -440 6 -505
4 -19 0 -36 -8 -31 -12 7 -207 19 -337 19 -118 1 -266 -8 -315 -18 -14 -3 -41
-8 -60 -11 -174 -26 -349 -89 -490 -178 -307 -193 -491 -536 -526 -981 -13
-159 -4 -500 13 -528 6 -10 -17 -38 -26 -33 -13 9 -154 18 -279 20 -139 1
-333 -12 -423 -29 -275 -53 -484 -148 -640 -292 -31 -29 -64 -71 -72 -92 -20
-49 -15 -130 10 -173 43 -74 147 -115 227 -88 21 6 70 38 109 69 40 32 91 68
115 82 l43 23 465 -467 465 -467 -27 -50 c-15 -27 -49 -75 -76 -107 -67 -78
-82 -114 -75 -187 10 -108 99 -182 209 -173 68 6 111 33 178 114 203 243 300
583 295 1033 -1 85 -6 188 -10 229 l-7 73 94 -7 c456 -37 830 25 1093 183 44
26 91 56 104 67 355 287 498 728 447 1383 l-8 102 103 -7 c500 -35 869 37
1143 222 141 95 193 155 203 233 14 119 -75 222 -191 222 -62 0 -88 -12 -173
-81 -41 -33 -92 -69 -114 -80 l-39 -19 -467 464 -467 465 18 34 c21 37 50 79
114 160 33 43 44 66 49 106 10 84 -30 160 -106 200 -39 22 -123 23 -166 3z
m132 -1101 c76 -76 206 -207 288 -291 l150 -152 -185 5 c-238 7 -370 24 -371
49 -1 10 -2 21 -3 26 -2 4 -6 39 -10 77 -4 39 -9 86 -11 105 -8 67 -8 320 0
320 2 0 66 -62 142 -139z m-687 -716 c41 -3 111 -12 155 -18 l80 -12 12 -90
c25 -190 36 -423 22 -447 -6 -9 -589 558 -589 573 0 7 225 3 320 -6z m-304
-572 c255 -258 464 -469 464 -471 0 -9 -74 -112 -107 -150 -21 -23 -74 -67
-118 -97 l-80 -54 -58 57 c-32 31 -242 240 -468 464 -391 387 -410 408 -398
430 23 45 98 144 136 179 41 39 142 109 157 109 5 0 217 -210 472 -467z m-306
-878 c0 -10 -369 5 -460 18 l-84 12 -7 40 c-17 98 -20 142 -25 325 l-6 195
291 -292 c160 -161 291 -295 291 -298z m-1180 -279 c74 -4 146 -8 160 -10 14
-2 51 -7 83 -11 53 -7 57 -9 58 -34 0 -14 2 -37 5 -51 2 -14 6 -38 9 -55 3
-16 8 -118 11 -225 l6 -195 -162 160 c-89 88 -221 219 -293 290 l-130 130 49
5 c27 3 54 5 59 4 6 -2 71 -5 145 -8z"/>
</g>
</svg>
